Fly_normalized_Motion_pl04
version=1
nRows=18
nColumns=43
inDegrees=yes
endheader
time		pelvis_tilt		pelvis_list		pelvis_rotation		pelvis_tx		pelvis_ty		pelvis_tz		hip_flexion_r		hip_adduction_r		hip_rotation_r		knee_angle_r		ankle_angle_r		subtalar_angle_r		mtp_angle_r		hip_flexion_l		hip_adduction_l		hip_rotation_l		knee_angle_l		ankle_angle_l		subtalar_angle_l		mtp_angle_l		lumbar_extension		lumbar_bending		lumbar_rotation		neck_flexion		neck_lateral_bending		neck_rotation		arm_flex_r		arm_add_r		arm_rot_r		elbow_flex_r		pro_sup_r		wrist_flex_r		wrist_dev_r		hand_finger_flex_r		arm_flex_l		arm_add_l		arm_rot_l		elbow_flex_l		pro_sup_l		wrist_flex_l		wrist_dev_l		hand_finger_flex_l		
0.355833		-1.163452		-6.004042		87.600122		0.048250		1.751739		1.264257		36.352199		-3.520063		3.717707		-94.155659		-21.604094		-23.068517		-10.141643		64.135123		-5.268708		-1.574153		-72.469722		-20.749550		-1.990217		21.151154		-41.890161		-4.176000		6.001212		19.307107		1.334175		-6.855754		67.910585		-29.549822		10.335021		62.316248		135.215016		-2.744126		-9.431888		6.656335		61.347947		-23.632835		11.229430		53.013620		106.332974		-14.736159		-4.610658		5.798730		
0.360025		-1.103874		-5.838988		87.461298		0.047572		1.747377		1.256238		36.701818		-3.448879		3.580974		-93.195030		-21.543392		-23.101145		-10.175216		63.472798		-5.381628		-1.639039		-70.819402		-20.889628		-2.005032		21.088270		-42.096724		-4.164962		6.068633		19.253513		1.214810		-6.766494		67.120547		-29.782184		10.204746		62.206910		135.115251		-2.742078		-9.425584		6.657675		60.549419		-24.016466		11.115529		52.818337		106.310039		-14.841517		-4.654023		5.761111		
0.364217		-1.095410		-5.585190		87.379650		0.046967		1.742922		1.248090		36.949855		-3.434294		3.403289		-92.257946		-21.502174		-23.280785		-10.299675		62.725871		-5.408920		-1.717710		-69.208053		-21.235081		-2.072572		20.960387		-42.437730		-4.164865		6.007152		19.391837		0.996076		-6.556504		66.106346		-29.858142		9.675187		62.343729		134.824561		-2.878343		-9.489873		6.576397		59.570142		-24.413467		10.722624		52.830624		106.267918		-15.115626		-4.842552		5.677117		
0.368409		-1.001632		-5.391519		87.344668		0.046466		1.738207		1.240107		37.250093		-3.303070		3.175410		-91.307144		-21.433042		-23.326021		-10.379641		62.038202		-5.456851		-1.684082		-67.573291		-21.421048		-2.059542		20.868188		-42.703016		-4.087580		5.986747		19.453773		0.879481		-6.417971		65.182253		-30.034264		9.341610		62.375530		134.630627		-2.956898		-9.565078		6.514630		58.701383		-24.767630		10.390982		52.656273		106.267595		-15.239241		-4.915237		5.673763		
0.372601		-0.899970		-5.197126		87.332654		0.046038		1.733305		1.232118		37.544484		-3.165447		2.918453		-90.350739		-21.344262		-23.344354		-10.477412		61.356744		-5.507299		-1.645175		-65.974709		-21.618589		-2.022452		20.767178		-42.974473		-3.999754		5.945779		19.557019		0.770618		-6.261300		64.196100		-30.207379		8.951037		62.469143		134.383462		-3.048816		-9.679489		6.435229		57.793830		-25.108574		9.971636		52.489879		106.286483		-15.360229		-5.017465		5.692490		
0.376793		-0.773924		-4.971163		87.387147		0.045592		1.728174		1.224056		37.800631		-3.076447		2.554295		-89.425481		-21.193896		-23.186170		-10.549482		60.653856		-5.546938		-1.593150		-64.404095		-21.828465		-1.852509		20.677185		-43.288512		-3.849780		5.885747		19.625904		0.636598		-6.059926		63.077689		-30.505292		8.557976		62.786545		134.022443		-3.192904		-9.892071		6.333846		56.779373		-25.475968		9.488631		52.455363		106.317901		-15.459109		-5.180906		5.752197		
0.380985		-0.637918		-4.779773		87.409512		0.045233		1.722785		1.216058		38.084376		-2.974812		2.194633		-88.464212		-21.008773		-22.940041		-10.590470		59.989151		-5.639200		-1.553908		-62.867734		-21.948402		-1.658452		20.612150		-43.554833		-3.723160		5.824045		19.724632		0.572798		-5.902486		62.026346		-30.812098		8.293959		63.023809		133.648080		-3.298720		-10.067190		6.248596		55.782994		-25.931360		9.127051		52.380138		106.357642		-15.509319		-5.283605		5.826822		
0.385177		-0.530387		-4.546460		87.474904		0.044911		1.717261		1.207968		38.325931		-2.956054		1.779795		-87.537010		-20.690192		-22.425727		-10.613962		59.282127		-5.704685		-1.546393		-61.369064		-22.083256		-1.272613		20.555846		-43.902035		-3.605706		5.691952		19.940327		0.530168		-5.664110		60.848369		-31.129603		7.912951		63.446294		132.946510		-3.502402		-10.294512		6.089825		54.638974		-26.501396		8.730324		52.572398		106.397319		-15.571193		-5.422883		5.946408		
0.389369		-0.432340		-4.329855		87.518010		0.044710		1.711571		1.199927		38.566948		-2.869644		1.460807		-86.569235		-20.389042		-21.862396		-10.555793		58.558507		-5.792228		-1.568740		-59.846662		-22.145945		-0.898152		20.541107		-44.215184		-3.533529		5.528957		20.176813		0.551878		-5.456912		59.760285		-31.343953		7.567919		63.700299		132.283640		-3.702824		-10.416922		5.958414		53.562467		-27.147821		8.524856		52.659147		106.304388		-15.703450		-5.411397		5.979978		
0.393561		-0.350063		-4.092398		87.519493		0.044492		1.705661		1.191795		38.795736		-2.828517		1.098341		-85.601253		-20.242437		-21.371219		-10.488183		57.814840		-5.899132		-1.626315		-58.377492		-22.238276		-0.602238		20.527346		-44.508340		-3.482113		5.399507		20.157003		0.523863		-5.279962		58.639671		-31.593103		7.247302		63.981155		131.790364		-3.880343		-10.535108		5.870999		52.452631		-27.775229		8.363989		52.697318		106.185466		-15.852277		-5.412832		5.972741		
0.397753		-0.295602		-3.819881		87.508310		0.044198		1.699628		1.183471		38.978055		-2.818250		0.797927		-84.643154		-20.064479		-20.639139		-10.309132		57.021351		-5.992036		-1.707295		-56.954348		-22.369787		-0.171554		20.541758		-44.858233		-3.461657		5.256451		20.292681		0.501045		-5.018853		57.342735		-31.758968		6.618915		64.424086		131.082556		-4.160969		-10.686063		5.760619		51.201886		-28.352938		8.065898		52.876043		105.901957		-16.152582		-5.456227		5.886307		
0.401944		-0.207839		-3.608524		87.430826		0.043829		1.693321		1.175102		39.208489		-2.730108		0.546919		-83.644855		-19.982663		-19.985035		-10.071506		56.291530		-6.138498		-1.779021		-55.579550		-22.479693		0.139714		20.557018		-45.102407		-3.429725		5.202129		20.332907		0.451508		-4.818772		56.075245		-31.984719		6.099482		64.818538		130.533762		-4.352844		-10.805948		5.709073		49.974433		-28.774871		7.677259		52.821737		105.633232		-16.410396		-5.507235		5.788926		
0.406136		-0.102417		-3.425406		87.311194		0.043401		1.686772		1.166646		39.452780		-2.620214		0.301285		-82.623015		-19.985467		-19.348902		-9.788288		55.595926		-6.325590		-1.864997		-54.261949		-22.625486		0.395630		20.556336		-45.298628		-3.392030		5.203173		20.339959		0.372162		-4.625191		54.735481		-32.264502		5.577105		65.300245		130.053905		-4.548411		-10.928153		5.661820		48.686342		-29.092087		7.153444		52.711350		105.410223		-16.628095		-5.625252		5.696530		
0.410328		0.015446		-3.268176		87.163571		0.042943		1.679995		1.158150		39.702552		-2.488367		0.058732		-81.572838		-20.037574		-18.739825		-9.476555		54.935881		-6.544677		-1.977195		-53.001749		-22.795281		0.596324		20.536595		-45.451739		-3.348148		5.229461		20.316770		0.291270		-4.448177		53.365007		-32.587858		5.100252		65.825174		129.629401		-4.731831		-11.047039		5.610402		47.360905		-29.371112		6.578320		52.555508		105.245194		-16.783543		-5.766197		5.625545		
0.414520		0.134173		-3.091399		86.995866		0.042497		1.673040		1.149591		39.910972		-2.352705		-0.182166		-80.500744		-20.154129		-18.184663		-9.230903		54.268486		-6.794371		-2.146210		-51.813392		-23.018258		0.747658		20.487406		-45.611233		-3.310864		5.261241		20.242495		0.204248		-4.265893		51.955912		-32.932671		4.648033		66.393858		129.294385		-4.943370		-11.186689		5.536336		45.980482		-29.663644		6.019005		52.412736		105.109299		-16.924753		-5.906276		5.577323		
0.418712		0.244645		-2.909622		86.827352		0.042106		1.665889		1.140996		40.093536		-2.228163		-0.426429		-79.429845		-20.245793		-17.478196		-8.766588		53.577933		-7.062200		-2.395258		-50.627502		-23.285224		0.889559		20.419668		-45.779307		-3.305592		5.306345		20.232475		0.156297		-4.091049		50.431708		-33.308715		4.090501		67.069001		128.862349		-5.163944		-11.321250		5.436978		44.538007		-29.926315		5.360221		52.366052		105.001781		-16.992768		-6.094619		5.557658		
0.422904		0.349773		-2.682877		86.667540		0.041686		1.658620		1.132367		40.189606		-2.101769		-0.659364		-78.318089		-20.368031		-16.840589		-8.283464		52.842461		-7.321488		-2.680265		-49.483020		-23.580150		0.967744		20.331238		-45.976097		-3.293980		5.315933		20.152801		0.116007		-3.932941		48.945282		-33.672802		3.595364		67.698251		128.517686		-5.377000		-11.468523		5.333275		43.099062		-30.225805		4.800852		52.271195		104.940216		-17.045789		-6.218447		5.564298		
0.427096		0.456166		-2.430275		86.525772		0.041255		1.651180		1.123676		40.221235		-1.973953		-0.899151		-77.179996		-20.517799		-16.199972		-7.786919		52.078102		-7.572254		-2.982218		-48.362148		-23.920697		0.999774		20.222324		-46.184986		-3.268687		5.313898		20.041912		0.077327		-3.775055		47.438118		-34.035419		3.095478		68.333160		128.223432		-5.598977		-11.653809		5.229641		41.629227		-30.521089		4.264965		52.175674		104.901005		-17.122316		-6.324484		5.588413		
